<?xml version="1.0" standalone="no"?>
<!DOCTYPE svg PUBLIC "-//W3C//DTD SVG 20010904//EN"
 "http://www.w3.org/TR/2001/REC-SVG-20010904/DTD/svg10.dtd">
<svg version="1.0" xmlns="http://www.w3.org/2000/svg"
 width="1488.000000pt" height="250.000000pt" viewBox="0 0 1488.000000 250.000000"
 preserveAspectRatio="xMidYMid meet">

<g transform="translate(0.000000,250.000000) scale(0.100000,-0.100000)"
fill="#000000" stroke="none">
<path d="M30 1665 c0 -788 0 -795 20 -795 20 0 20 7 20 795 0 788 0 795 -20
795 -20 0 -20 -7 -20 -795z"/>
<path d="M170 1665 c0 -788 0 -795 20 -795 20 0 20 7 20 795 0 788 0 795 -20
795 -20 0 -20 -7 -20 -795z"/>
<path d="M310 1803 l0 -658 20 33 c19 32 20 50 20 657 0 618 0 625 -20 625
-20 0 -20 -7 -20 -657z"/>
<path d="M450 1885 c0 -316 2 -575 4 -575 2 0 11 3 20 6 14 6 16 66 16 575 0
562 0 569 -20 569 -20 0 -20 -7 -20 -575z"/>
<path d="M590 1895 c0 -558 0 -565 20 -565 20 0 20 7 20 565 0 558 0 565 -20
565 -20 0 -20 -7 -20 -565z"/>
<path d="M730 1895 c0 -558 0 -565 20 -565 20 0 20 7 20 565 0 558 0 565 -20
565 -20 0 -20 -7 -20 -565z"/>
<path d="M870 1988 l1 -473 24 28 25 28 0 445 0 444 -25 0 -25 0 0 -472z"/>
<path d="M1010 2055 c0 -223 3 -405 8 -405 4 0 15 7 25 14 16 12 17 44 17 405
l0 391 -25 0 -25 0 0 -405z"/>
<path d="M1150 2284 c0 -157 2 -178 18 -190 9 -7 20 -14 25 -14 4 0 7 86 7
190 l0 190 -25 0 -25 0 0 -176z"/>
<path d="M1290 2270 l0 -190 25 12 25 11 0 179 0 178 -25 0 -25 0 0 -190z"/>
<path d="M1430 2065 c0 -380 1 -395 19 -405 11 -5 22 -10 25 -10 3 0 6 182 6
405 l0 405 -25 0 -25 0 0 -395z"/>
<path d="M1570 2013 c1 -423 2 -449 19 -470 11 -13 22 -23 25 -23 3 0 6 211 6
470 l0 470 -25 0 -25 0 0 -447z"/>
<path d="M1710 1895 l0 -565 25 0 25 0 0 565 0 565 -25 0 -25 0 0 -565z"/>
<path d="M1850 1895 l0 -565 25 0 25 0 0 565 0 565 -25 0 -25 0 0 -565z"/>
<path d="M1990 1897 c0 -575 1 -587 37 -587 11 0 13 110 13 575 l0 575 -25 0
-25 0 0 -563z"/>
<path d="M2130 1839 l0 -620 25 -37 25 -37 0 658 0 657 -25 0 -25 0 0 -621z"/>
<path d="M2270 1665 l0 -795 25 0 25 0 0 795 0 795 -25 0 -25 0 0 -795z"/>
<path d="M2410 1665 l0 -795 25 0 25 0 0 795 0 795 -25 0 -25 0 0 -795z"/>
<path d="M3315 2422 c108 -69 169 -151 203 -275 15 -56 17 -136 17 -887 0
-887 0 -887 -52 -998 -30 -64 -102 -138 -175 -180 l-53 -32 569 0 569 0 -60
39 c-115 74 -178 164 -205 296 -19 90 -18 1656 0 1740 31 135 115 250 223 306
22 11 39 22 39 24 0 3 -255 5 -567 5 l-568 0 60 -38z"/>
<path d="M4740 2432 c116 -70 177 -143 213 -257 22 -70 22 -70 22 -920 0 -797
-1 -854 -18 -910 -39 -125 -92 -194 -201 -259 l-60 -36 445 0 444 0 -54 31
c-67 38 -142 113 -170 167 -56 109 -55 100 -59 867 -2 465 0 707 7 700 13 -14
946 -1510 1029 -1652 l67 -113 282 0 282 0 3 1033 3 1032 23 63 c39 109 102
186 206 251 l50 31 -444 0 -445 0 55 -36 c110 -71 163 -139 203 -257 21 -60
22 -81 25 -722 2 -434 0 -657 -7 -650 -14 14 -701 1152 -790 1308 -68 119
-152 292 -164 337 -5 20 -16 20 -499 20 l-493 0 45 -28z"/>
<path d="M7569 2429 c71 -41 143 -114 176 -179 54 -107 55 -117 55 -1001 0
-784 -1 -819 -20 -894 -11 -43 -31 -97 -44 -119 -34 -57 -101 -119 -166 -155
l-55 -31 685 1 c838 0 926 6 1132 83 114 43 187 87 267 163 121 112 180 242
188 413 6 121 -8 196 -58 298 -34 69 -115 163 -189 217 -61 45 -186 106 -273
135 l-68 22 83 51 c108 66 207 166 246 248 124 263 24 530 -248 662 -109 53
-255 91 -409 107 -59 6 -369 10 -730 10 l-626 0 54 -31z m1161 -275 c165 -38
258 -149 268 -317 8 -133 -34 -260 -118 -358 l-39 -46 -173 -6 c-95 -4 -199
-10 -230 -13 l-58 -7 0 376 0 376 28 4 c71 11 261 6 322 -9z m129 -1020 c192
-43 308 -175 319 -363 11 -199 -77 -333 -261 -399 -66 -23 -89 -26 -269 -30
-109 -2 -213 -1 -233 2 l-35 7 0 388 0 389 83 11 c158 21 284 20 396 -5z"/>
<path d="M10646 2431 c107 -78 134 -160 100 -301 -7 -30 -133 -410 -280 -845
-307 -907 -327 -957 -446 -1076 -48 -49 -102 -91 -150 -117 l-75 -42 480 0
479 0 -71 34 c-119 57 -173 128 -173 226 0 53 25 148 86 332 l55 167 77 18
c56 13 120 18 232 18 188 0 259 -15 409 -87 91 -44 116 -62 191 -137 126 -126
178 -247 156 -364 -10 -56 -76 -121 -168 -167 l-80 -40 628 0 629 0 -70 36
c-140 72 -208 140 -277 279 -45 90 -615 1687 -634 1774 -26 126 -14 172 72
259 l62 62 -635 0 -636 0 39 -29z m664 -876 c112 -308 205 -566 208 -573 2 -7
-23 3 -57 23 -134 78 -279 115 -453 114 -62 0 -146 -6 -186 -13 -62 -11 -72
-11 -68 1 3 7 81 243 173 523 92 281 170 504 174 497 4 -6 98 -264 209 -572z"/>
<path d="M12896 2422 c108 -70 168 -152 202 -275 15 -56 17 -136 17 -892 0
-777 -1 -835 -19 -903 -31 -122 -95 -204 -216 -275 l-45 -27 1008 0 1007 0 0
333 0 332 -33 -60 c-95 -176 -191 -261 -347 -310 -40 -12 -107 -18 -250 -22
-349 -10 -455 20 -505 139 -13 33 -15 137 -15 827 0 543 3 807 11 843 26 123
102 227 213 293 l60 35 -574 0 -573 0 59 -38z"/>
<path d="M1181 1993 c12 -21 26 -42 31 -47 11 -13 10 -100 -1 -111 -6 -6 -11
-35 -13 -65 -3 -48 -6 -55 -25 -58 -19 -3 -23 -10 -23 -42 0 -38 -2 -40 -54
-65 -78 -37 -149 -105 -185 -177 -54 -107 -85 -98 335 -98 l366 0 -7 28 c-23
97 -113 201 -208 243 -56 24 -57 24 -57 67 0 38 -2 42 -25 42 -24 0 -25 3 -25
60 0 45 -4 62 -15 66 -28 11 -18 80 20 140 27 42 31 52 16 44 -11 -5 -24 -18
-30 -27 -8 -15 -11 -15 -26 -3 -14 12 -18 12 -25 0 -7 -11 -14 -9 -34 13 -35
38 -42 34 -15 -10z m107 -325 c-3 -8 -21 -13 -43 -13 -22 0 -40 5 -42 13 -3 8
9 12 42 12 33 0 45 -4 43 -12z"/>
<path d="M473 1221 c-45 -33 -103 -99 -103 -118 0 -10 41 -13 180 -13 l180 0
0 80 0 80 -108 0 c-104 0 -111 -1 -149 -29z"/>
<path d="M774 1236 c-3 -7 -4 -42 -2 -77 l3 -64 48 -3 47 -3 0 80 0 81 -45 0
c-29 0 -48 -5 -51 -14z"/>
<path d="M920 1170 l0 -80 45 0 45 0 0 80 0 80 -45 0 -45 0 0 -80z"/>
<path d="M1060 1174 c0 -69 2 -75 18 -69 9 4 29 12 45 17 25 9 27 14 27 69 l0
59 -45 0 -45 0 0 -76z"/>
<path d="M1200 1195 l0 -55 45 0 45 0 0 55 0 55 -45 0 -45 0 0 -55z"/>
<path d="M1340 1191 c0 -55 2 -60 28 -69 15 -5 35 -13 45 -17 15 -6 17 0 17
69 l0 76 -45 0 -45 0 0 -59z"/>
<path d="M1480 1170 l0 -80 45 0 45 0 0 80 0 80 -45 0 -45 0 0 -80z"/>
<path d="M1620 1170 l0 -80 45 0 45 0 0 80 0 80 -45 0 -45 0 0 -80z"/>
<path d="M1760 1170 l0 -80 180 0 c99 0 180 4 180 8 0 19 -62 94 -102 122 -40
29 -45 30 -150 30 l-108 0 0 -80z"/>
<path d="M1145 1057 c-86 -34 -151 -94 -189 -176 -19 -41 -21 -67 -24 -238 -3
-190 -3 -193 17 -193 20 0 21 5 21 150 l0 150 45 0 45 0 0 -150 0 -150 185 0
185 0 0 150 0 150 40 0 40 0 0 -150 0 -150 26 0 26 0 -4 188 c-3 177 -5 190
-29 242 -36 78 -80 124 -151 160 -52 25 -72 30 -132 29 -39 0 -84 -6 -101 -12z
m204 -44 c75 -30 138 -101 156 -175 l7 -28 -270 0 -271 0 15 42 c51 146 219
221 363 161z"/>
<path d="M1166 965 c-39 -14 -115 -79 -104 -90 3 -3 88 -4 189 -3 l184 3 -41
40 c-61 62 -145 80 -228 50z"/>
<path d="M270 935 c0 -65 0 -65 28 -65 17 0 38 10 52 25 42 45 122 42 166 -6
16 -17 33 -19 190 -19 l172 0 11 30 c5 17 19 44 31 59 11 16 20 32 20 35 0 3
-151 6 -335 6 l-335 0 0 -65z"/>
<path d="M1564 966 c12 -19 29 -48 36 -65 l12 -31 170 0 c167 0 171 0 200 25
53 45 103 45 156 0 17 -14 42 -25 56 -25 25 0 26 2 26 65 l0 65 -340 0 -339 0
23 -34z"/>
<path d="M386 835 c-18 -20 -33 -25 -70 -25 l-46 0 0 -180 c0 -173 1 -180 20
-180 19 0 20 7 20 150 l0 150 120 0 120 0 0 -150 c0 -143 1 -150 20 -150 19 0
20 7 20 150 l0 150 120 0 120 0 0 -150 c0 -143 1 -150 20 -150 19 0 20 7 20
180 l0 180 -190 0 c-188 0 -189 0 -214 25 -14 14 -32 25 -41 25 -9 0 -26 -11
-39 -25z"/>
<path d="M2024 835 c-25 -25 -26 -25 -214 -25 l-190 0 0 -180 c0 -173 1 -180
20 -180 19 0 20 7 20 150 l0 150 120 0 120 0 0 -150 c0 -143 1 -150 20 -150
19 0 20 7 20 150 l0 150 120 0 120 0 0 -150 c0 -143 1 -150 20 -150 19 0 20 7
20 180 l0 180 -50 0 c-39 0 -54 5 -74 25 -14 14 -30 25 -36 25 -6 0 -22 -11
-36 -25z"/>
<path d="M30 630 l0 -180 90 0 90 0 0 180 0 180 -90 0 -90 0 0 -180z"/>
<path d="M2280 630 l0 -180 90 0 90 0 0 180 0 180 -90 0 -90 0 0 -180z"/>
<path d="M382 698 c-8 -8 -12 -52 -12 -130 l0 -118 60 0 60 0 0 111 c0 61 -5
119 -10 130 -12 22 -78 27 -98 7z"/>
<path d="M673 703 c-10 -3 -13 -39 -13 -129 l0 -124 50 0 50 0 0 118 c0 78 -4
122 -12 130 -12 12 -52 15 -75 5z"/>
<path d="M1730 691 c-5 -11 -10 -69 -10 -130 l0 -111 55 0 55 0 0 118 c0 78
-4 122 -12 130 -20 20 -76 15 -88 -7z"/>
<path d="M2012 698 c-8 -8 -12 -52 -12 -130 l0 -118 60 0 60 0 0 111 c0 61 -5
119 -10 130 -12 22 -78 27 -98 7z"/>
<path d="M30 205 l0 -155 90 0 90 0 0 155 0 155 -90 0 -90 0 0 -155z"/>
<path d="M270 205 c0 -148 1 -155 20 -155 19 0 20 7 20 100 0 96 1 101 29 132
27 30 35 33 85 33 47 0 60 -4 83 -28 26 -26 28 -33 31 -132 l4 -105 164 0 164
0 0 155 0 155 -300 0 -300 0 0 -155z"/>
<path d="M930 206 l0 -156 35 0 36 0 -3 153 -3 152 -32 3 -33 3 0 -155z"/>
<path d="M1060 205 l0 -155 185 0 185 0 0 155 0 155 -185 0 -185 0 0 -155z"/>
<path d="M1490 206 l0 -156 35 0 36 0 -3 153 -3 152 -32 3 -33 3 0 -155z"/>
<path d="M1620 205 l0 -155 165 0 165 0 0 100 c0 96 1 101 29 132 27 30 35 33
85 33 47 0 60 -4 83 -28 26 -26 28 -33 31 -132 4 -95 6 -105 23 -105 18 0 19
9 19 155 l0 155 -300 0 -300 0 0 -155z"/>
<path d="M2280 205 l0 -155 90 0 90 0 0 155 0 155 -90 0 -90 0 0 -155z"/>
<path d="M387 242 c-13 -14 -17 -39 -17 -105 l0 -87 55 0 55 0 0 85 c0 72 -3
88 -20 105 -25 25 -52 26 -73 2z"/>
<path d="M2027 242 c-13 -14 -17 -39 -17 -105 l0 -87 55 0 55 0 0 85 c0 72 -3
88 -20 105 -25 25 -52 26 -73 2z"/>
</g>
</svg>
